<svg width="25" height="24" viewBox="0 0 25 24" fill="none" xmlns="http://www.w3.org/2000/svg">
<path d="M23.2994 9.03C22.7294 8.37 21.8994 8 21.0294 8H20.9394C20.4394 3.51 16.6194 0 11.9994 0C7.37941 0 3.54941 3.51 3.04941 8H2.99941C2.12941 8 1.29941 8.38 0.729406 9.03C0.159406 9.69 -0.090594 10.56 0.029406 11.42L1.08941 18.84C1.50941 21.78 4.05941 23.99 7.02941 23.99H16.9994C19.9694 23.99 22.5194 21.78 22.9394 18.84L23.9994 11.42C24.1194 10.56 23.8694 9.69 23.2994 9.03ZM11.9994 2C15.5194 2 18.4394 4.61 18.9294 8H5.06941C5.55941 4.61 8.47941 2 11.9994 2ZM22.0194 11.14L20.9594 18.56C20.6794 20.52 18.9794 21.99 16.9994 21.99H7.02941C5.04941 21.99 3.34941 20.51 3.06941 18.56L2.00941 11.14C1.96941 10.85 2.04941 10.57 2.23941 10.34C2.42941 10.12 2.69941 9.99 2.99941 9.99H21.0294C21.3194 9.99 21.5894 10.11 21.7794 10.33C21.9694 10.55 22.0594 10.84 22.0094 11.13L22.0194 11.14Z" fill="#666666"/>
</svg>
