<svg width="16" height="16" viewBox="0 0 16 16" fill="none" xmlns="http://www.w3.org/2000/svg">
<path d="M12.1952 4.19519C12.0702 4.07021 11.9006 4 11.7239 4C11.5471 4 11.3775 4.07021 11.2525 4.19519L8.19519 7.25253L5.13786 4.19519C5.01284 4.07021 4.8433 4 4.66652 4C4.48975 4 4.32021 4.07021 4.19519 4.19519C4.07021 4.32021 4 4.48975 4 4.66652C4 4.8433 4.07021 5.01284 4.19519 5.13786L7.25253 8.19519L4.19519 11.2525C4.07021 11.3775 4 11.5471 4 11.7239C4 11.9006 4.07021 12.0702 4.19519 12.1952C4.32021 12.3202 4.48975 12.3904 4.66652 12.3904C4.8433 12.3904 5.01284 12.3202 5.13786 12.1952L8.19519 9.13786L11.2525 12.1952C11.3775 12.3202 11.5471 12.3904 11.7239 12.3904C11.9006 12.3904 12.0702 12.3202 12.1952 12.1952C12.3202 12.0702 12.3904 11.9006 12.3904 11.7239C12.3904 11.5471 12.3202 11.3775 12.1952 11.2525L9.13786 8.19519L12.1952 5.13786C12.3202 5.01284 12.3904 4.8433 12.3904 4.66652C12.3904 4.48975 12.3202 4.32021 12.1952 4.19519Z" fill="#666666"/>
</svg>
