<svg width="129" height="24" viewBox="0 0 129 24" fill="none" xmlns="http://www.w3.org/2000/svg">
<path d="M0.000476599 0.320213H5.21648C7.02981 0.320213 8.35248 0.74688 9.18448 1.60021C10.0165 2.43221 10.4325 3.72288 10.4325 5.47221V6.84821C10.4325 9.17355 9.66448 10.6455 8.12848 11.2642V11.3282C8.98181 11.5842 9.57914 12.1069 9.92048 12.8962C10.2831 13.6855 10.4645 14.7415 10.4645 16.0642V20.0002C10.4645 20.6402 10.4858 21.1629 10.5285 21.5682C10.5711 21.9522 10.6778 22.3362 10.8485 22.7202H7.26448C7.13648 22.3575 7.05114 22.0162 7.00848 21.6962C6.96581 21.3762 6.94448 20.8002 6.94448 19.9682V15.8722C6.94448 14.8482 6.77381 14.1335 6.43248 13.7282C6.11248 13.3229 5.54714 13.1202 4.73648 13.1202H3.52048V22.7202H0.000476599V0.320213ZM4.80048 9.92021C5.50448 9.92021 6.02714 9.73888 6.36848 9.37621C6.73114 9.01355 6.91248 8.40555 6.91248 7.55221V5.82421C6.91248 5.01355 6.76314 4.42688 6.46448 4.06421C6.18714 3.70155 5.73914 3.52021 5.12048 3.52021H3.52048V9.92021H4.80048ZM12.9067 0.320213H22.5067V3.52021H16.4267V9.44021H21.2587V12.6402H16.4267V19.5202H22.5067V22.7202H12.9067V0.320213ZM24.5317 0.320213H34.1317V3.52021H28.0517V9.44021H32.8837V12.6402H28.0517V19.5202H34.1317V22.7202H24.5317V0.320213ZM36.1567 0.320213H39.6767V19.5202H45.4687V22.7202H36.1567V0.320213ZM55.0337 3.52021H51.3537V0.320213H62.2337V3.52021H58.5537V22.7202H55.0337V3.52021ZM68.901 23.0402C67.173 23.0402 65.8503 22.5495 64.933 21.5682C64.0156 20.5869 63.557 19.2002 63.557 17.4082V5.63221C63.557 3.84021 64.0156 2.45355 64.933 1.47221C65.8503 0.49088 67.173 0.000213623 68.901 0.000213623C70.629 0.000213623 71.9516 0.49088 72.869 1.47221C73.7863 2.45355 74.245 3.84021 74.245 5.63221V17.4082C74.245 19.2002 73.7863 20.5869 72.869 21.5682C71.9516 22.5495 70.629 23.0402 68.901 23.0402ZM68.901 19.8402C70.117 19.8402 70.725 19.1042 70.725 17.6322V5.40821C70.725 3.93621 70.117 3.20021 68.901 3.20021C67.685 3.20021 67.077 3.93621 67.077 5.40821V17.6322C67.077 19.1042 67.685 19.8402 68.901 19.8402ZM81.7505 0.320213H86.9665C88.7798 0.320213 90.1025 0.74688 90.9345 1.60021C91.7665 2.43221 92.1825 3.72288 92.1825 5.47221V6.84821C92.1825 9.17355 91.4145 10.6455 89.8785 11.2642V11.3282C90.7318 11.5842 91.3291 12.1069 91.6705 12.8962C92.0331 13.6855 92.2145 14.7415 92.2145 16.0642V20.0002C92.2145 20.6402 92.2358 21.1629 92.2785 21.5682C92.3211 21.9522 92.4278 22.3362 92.5985 22.7202H89.0145C88.8865 22.3575 88.8011 22.0162 88.7585 21.6962C88.7158 21.3762 88.6945 20.8002 88.6945 19.9682V15.8722C88.6945 14.8482 88.5238 14.1335 88.1825 13.7282C87.8625 13.3229 87.2971 13.1202 86.4865 13.1202H85.2705V22.7202H81.7505V0.320213ZM86.5505 9.92021C87.2545 9.92021 87.7771 9.73888 88.1185 9.37621C88.4811 9.01355 88.6625 8.40555 88.6625 7.55221V5.82421C88.6625 5.01355 88.5131 4.42688 88.2145 4.06421C87.9371 3.70155 87.4891 3.52021 86.8705 3.52021H85.2705V9.92021H86.5505ZM94.6567 0.320213H104.257V3.52021H98.1767V9.44021H103.009V12.6402H98.1767V19.5202H104.257V22.7202H94.6567V0.320213ZM109.002 0.320213H113.77L117.418 22.7202H113.898L113.258 18.2722V18.3362H109.258L108.618 22.7202H105.354L109.002 0.320213ZM112.842 15.2962L111.274 4.22421H111.21L109.674 15.2962H112.842ZM119.125 0.320213H122.645V19.5202H128.437V22.7202H119.125V0.320213Z" fill="white"/>
</svg>
