<svg width="129" height="24" viewBox="0 0 129 24" fill="none" xmlns="http://www.w3.org/2000/svg">
<path d="M0.312 0.599998H5.528C7.34133 0.599998 8.664 1.02667 9.496 1.88C10.328 2.712 10.744 4.00267 10.744 5.752V7.128C10.744 9.45333 9.976 10.9253 8.44 11.544V11.608C9.29333 11.864 9.89067 12.3867 10.232 13.176C10.5947 13.9653 10.776 15.0213 10.776 16.344V20.28C10.776 20.92 10.7973 21.4427 10.84 21.848C10.8827 22.232 10.9893 22.616 11.16 23H7.576C7.448 22.6373 7.36267 22.296 7.32 21.976C7.27733 21.656 7.256 21.08 7.256 20.248V16.152C7.256 15.128 7.08533 14.4133 6.744 14.008C6.424 13.6027 5.85867 13.4 5.048 13.4H3.832V23H0.312V0.599998ZM5.112 10.2C5.816 10.2 6.33867 10.0187 6.68 9.656C7.04267 9.29333 7.224 8.68533 7.224 7.832V6.104C7.224 5.29333 7.07467 4.70667 6.776 4.344C6.49867 3.98133 6.05067 3.8 5.432 3.8H3.832V10.2H5.112ZM13.2183 0.599998H22.8183V3.8H16.7383V9.72H21.5703V12.92H16.7383V19.8H22.8183V23H13.2183V0.599998ZM24.8433 0.599998H34.4433V3.8H28.3633V9.72H33.1953V12.92H28.3633V19.8H34.4433V23H24.8433V0.599998ZM36.4683 0.599998H39.9883V19.8H45.7803V23H36.4683V0.599998ZM55.3453 3.8H51.6653V0.599998H62.5453V3.8H58.8653V23H55.3453V3.8ZM69.2125 23.32C67.4845 23.32 66.1618 22.8293 65.2445 21.848C64.3272 20.8667 63.8685 19.48 63.8685 17.688V5.912C63.8685 4.12 64.3272 2.73333 65.2445 1.752C66.1618 0.770665 67.4845 0.279999 69.2125 0.279999C70.9405 0.279999 72.2632 0.770665 73.1805 1.752C74.0978 2.73333 74.5565 4.12 74.5565 5.912V17.688C74.5565 19.48 74.0978 20.8667 73.1805 21.848C72.2632 22.8293 70.9405 23.32 69.2125 23.32ZM69.2125 20.12C70.4285 20.12 71.0365 19.384 71.0365 17.912V5.688C71.0365 4.216 70.4285 3.48 69.2125 3.48C67.9965 3.48 67.3885 4.216 67.3885 5.688V17.912C67.3885 19.384 67.9965 20.12 69.2125 20.12ZM82.062 0.599998H87.278C89.0913 0.599998 90.414 1.02667 91.246 1.88C92.078 2.712 92.494 4.00267 92.494 5.752V7.128C92.494 9.45333 91.726 10.9253 90.19 11.544V11.608C91.0433 11.864 91.6407 12.3867 91.982 13.176C92.3447 13.9653 92.526 15.0213 92.526 16.344V20.28C92.526 20.92 92.5473 21.4427 92.59 21.848C92.6327 22.232 92.7393 22.616 92.91 23H89.326C89.198 22.6373 89.1127 22.296 89.07 21.976C89.0273 21.656 89.006 21.08 89.006 20.248V16.152C89.006 15.128 88.8353 14.4133 88.494 14.008C88.174 13.6027 87.6087 13.4 86.798 13.4H85.582V23H82.062V0.599998ZM86.862 10.2C87.566 10.2 88.0887 10.0187 88.43 9.656C88.7927 9.29333 88.974 8.68533 88.974 7.832V6.104C88.974 5.29333 88.8247 4.70667 88.526 4.344C88.2487 3.98133 87.8007 3.8 87.182 3.8H85.582V10.2H86.862ZM94.9683 0.599998H104.568V3.8H98.4883V9.72H103.32V12.92H98.4883V19.8H104.568V23H94.9683V0.599998ZM109.313 0.599998H114.081L117.729 23H114.209L113.569 18.552V18.616H109.569L108.929 23H105.665L109.313 0.599998ZM113.153 15.576L111.585 4.504H111.521L109.985 15.576H113.153ZM119.437 0.599998H122.957V19.8H128.749V23H119.437V0.599998Z" fill="#1A1A1A"/>
</svg>
