<svg width="24" height="24" viewBox="0 0 24 24" fill="none" xmlns="http://www.w3.org/2000/svg">
<g clip-path="url(#clip0_4072_449)">
<path d="M11.9582 24.008L11.2611 23.4105C10.3001 22.6058 1.90918 15.3591 1.90918 10.0583C1.90918 4.50839 6.40829 0.00927734 11.9582 0.00927734C17.5081 0.00927734 22.0072 4.50839 22.0072 10.0583C22.0072 15.3592 13.6163 22.6059 12.6593 23.4145L11.9582 24.008ZM11.9582 2.18217C7.6104 2.18709 4.08704 5.71045 4.08212 10.0582C4.08212 13.3883 9.24455 18.7081 11.9582 21.1429C14.6719 18.7071 19.8343 13.3843 19.8343 10.0582C19.8294 5.71045 16.306 2.18714 11.9582 2.18217Z" fill="#666666"/>
<path d="M11.958 14.0414C9.75802 14.0414 7.97461 12.258 7.97461 10.0581C7.97461 7.85811 9.75802 6.07471 11.958 6.07471C14.1579 6.07471 15.9413 7.85811 15.9413 10.0581C15.9413 12.258 14.1579 14.0414 11.958 14.0414ZM11.958 8.06633C10.858 8.06633 9.96628 8.95804 9.96628 10.058C9.96628 11.158 10.858 12.0497 11.958 12.0497C13.0579 12.0497 13.9496 11.158 13.9496 10.058C13.9496 8.95804 13.058 8.06633 11.958 8.06633Z" fill="#666666"/>
</g>
<defs>
<clipPath id="clip0_4072_449">
<rect width="24" height="24" fill="white"/>
</clipPath>
</defs>
</svg>
